<?xml version="1.0" encoding="UTF-8"?>
<svg xmlns="http://www.w3.org/2000/svg" version="1.1" xmlns:xlink="http://www.w3.org/1999/xlink" viewBox="0 0 32 32">
  <!-- Generator: Adobe Illustrator 30.0.0, SVG Export Plug-In . SVG Version: 2.1.1 Build 123)  -->
  <defs>
    <style>
      .st0 {
        fill: #eaa821;
      }

      .st1 {
        fill: url(#linear-gradient1);
      }

      .st2 {
        fill: #262626;
      }

      .st3 {
        fill: #231f20;
        font-family: Georgia, Georgia;
        font-size: 3.59px;
      }

      .st4 {
        fill: #1f3a5f;
      }

      .st5 {
        isolation: isolate;
      }

      .st6 {
        fill: #e4ab24;
      }

      .st7 {
        fill: #2a2a2a;
        font-family: Montserrat-Regular, Montserrat;
        font-size: 1.47px;
      }

      .st8 {
        fill: #f68c1f;
        mix-blend-mode: darken;
      }

      .st9 {
        fill: #e9a822;
      }

      .st10 {
        fill: url(#Orange);
      }

      .st11 {
        fill: #e3ac24;
      }

      .st12 {
        fill: url(#linear-gradient);
      }
    </style>
    <linearGradient id="linear-gradient" x1="18.96" y1="10.18" x2="19.4" y2="12.29" gradientUnits="userSpaceOnUse">
      <stop offset="0" stop-color="#e38b25"/>
      <stop offset=".07" stop-color="#e9a73b"/>
      <stop offset=".16" stop-color="#f0c452"/>
      <stop offset=".21" stop-color="#f3d05b"/>
      <stop offset=".32" stop-color="#e9c547"/>
      <stop offset=".47" stop-color="#dab328"/>
      <stop offset=".75" stop-color="#dea026"/>
      <stop offset="1" stop-color="#e38b25"/>
    </linearGradient>
    <linearGradient id="Orange" x1="18.92" y1="10.86" x2="19.23" y2="10.86" gradientUnits="userSpaceOnUse">
      <stop offset="0" stop-color="#f2954d"/>
      <stop offset=".5" stop-color="#eb6f24"/>
      <stop offset="1" stop-color="#d15a27"/>
    </linearGradient>
    <linearGradient id="linear-gradient1" x1="18.87" y1="10.2" x2="19.31" y2="12.3" xlink:href="#linear-gradient"/>
  </defs>
  <g class="st5">
    <g id="Layer_1">
      <g>
        <g>
          <path class="st0" d="M15.93,17.39c-.11-.03-.25-.06-.25-.06.03,0,0,0,0,0-.26-.07-.28-.12-.46-.21-.04.12-.2.27-.45.34-.27.07-.52,0-.62-.1.04-.12.24-.25.5-.31.14-.03.28-.04.38-.02-.17-.09-.33-.19-.48-.29h0s0,0,0,0c0,0-.02-.01-.03-.02h0s0,0,0,0c-.03.05-.08.11-.16.15-.09.05-.2.1-.34.11-.14.02-.27,0-.37-.04-.11-.04-.18-.09-.23-.15.06-.11.27-.21.54-.23.15-.01.28,0,.38.03-.16-.12-.31-.24-.45-.38,0,0-.01-.01-.02-.02-.07.1-.27.2-.53.19-.14,0-.26-.05-.36-.1-.1-.05-.17-.12-.2-.18.08-.1.3-.17.57-.15.14,0,.25.04.35.08,0,0,.02,0,.03.01-.13-.14-.26-.28-.38-.42h0s0,0,0,0c0,0-.01-.01-.02-.02h0s0,0,0,0c-.09.09-.3.16-.55.11-.14-.03-.25-.08-.34-.15-.09-.07-.15-.14-.17-.21.09-.09.33-.13.59-.07.13.03.25.07.33.13,0,0,.02.01.02.02-.12-.16-.22-.32-.32-.49,0,0,0-.01-.01-.02-.1.07-.32.11-.56.03-.13-.05-.24-.12-.32-.2-.08-.08-.13-.16-.14-.23.1-.07.34-.08.59.02.13.05.23.11.31.17,0,0,.01.01.02.02-.09-.18-.18-.36-.25-.55h.01c-.05-.02-.12-.06-.18-.13-.07-.08-.13-.19-.17-.31-.07-.26,0-.49.08-.57.12.05.25.22.32.46.04.12.04.23.04.33,0,.08-.03.15-.05.2h.01c.07.18.15.36.24.53,0,0,0-.01,0-.02,0-.1.01-.22.06-.34.1-.24.29-.38.41-.4.03.04.05.11.04.2,0,.09-.02.19-.07.31-.08.22-.22.39-.34.44,0,0,0,.01.01.02.1.16.2.32.31.48,0,0,0-.01,0-.02-.02-.1-.02-.22.01-.34.07-.25.23-.42.34-.46.04.04.06.1.07.19.01.09,0,.2-.02.32-.05.22-.16.42-.27.48,0,0,.01.01.02.02.12.15.24.29.38.42,0,0,0-.01,0-.02-.04-.09-.05-.21-.04-.34.03-.26.16-.44.27-.51.04.03.08.09.1.18.03.08.03.19.03.32-.02.23-.1.44-.19.52,0,0,.01,0,.02.01.14.13.29.25.44.37-.05-.09-.09-.21-.1-.35-.01-.26.1-.46.2-.54.09.05.18.22.2.47,0,.12,0,.25-.03.34-.02.08-.05.15-.09.19,0,0,.02.01.03.02.15.1.31.2.48.29-.07-.08-.13-.19-.15-.33-.05-.25.03-.47.11-.56.1.04.21.2.27.44.05.23.03.45-.04.55.18.09.23.14.48.2"/>
          <path class="st0" d="M16.07,17.39c.11-.03.25-.06.25-.06-.03,0,0,0,0,0,.26-.07.28-.12.46-.21.04.12.2.27.45.34.27.07.52,0,.62-.1-.04-.12-.24-.25-.5-.31-.14-.03-.28-.04-.38-.02.17-.09.33-.19.48-.29h0s0,0,0,0c0,0,.02-.01.03-.02h0s0,0,0,0c.03.05.08.11.16.15.09.05.2.1.34.11.14.02.27,0,.37-.04.11-.04.18-.09.23-.15-.06-.11-.27-.21-.54-.23-.15-.01-.28,0-.38.03.16-.12.31-.24.45-.38,0,0,.01-.01.02-.02.07.1.27.2.53.19.14,0,.26-.05.36-.1.1-.05.17-.12.2-.18-.08-.1-.3-.17-.57-.15-.14,0-.25.04-.35.08,0,0-.02,0-.03.01.13-.14.26-.28.38-.42h0s0,0,0,0c0,0,.01-.01.02-.02h0s0,0,0,0c.09.09.3.16.55.11.14-.03.25-.08.34-.15.09-.07.15-.14.17-.21-.09-.09-.33-.13-.59-.07-.13.03-.25.07-.33.13,0,0-.02.01-.02.02.12-.16.22-.32.32-.49,0,0,0-.01.01-.02.1.07.32.11.56.03.13-.05.24-.12.32-.2.08-.08.13-.16.14-.23-.1-.07-.34-.08-.59.02-.13.05-.23.11-.31.17,0,0-.01.01-.02.02.09-.18.18-.36.25-.55h-.01c.05-.02.12-.06.18-.13.07-.08.13-.19.17-.31.07-.26,0-.49-.08-.57-.12.05-.25.22-.32.46-.04.12-.04.23-.04.33,0,.08.03.15.05.2h-.01c-.07.18-.15.36-.24.53,0,0,0-.01,0-.02,0-.1-.01-.22-.06-.34-.1-.24-.29-.38-.41-.4-.03.04-.05.11-.04.2,0,.09.02.19.07.31.08.22.22.39.34.44,0,0,0,.01-.01.02-.1.16-.2.32-.31.48,0,0,0-.01,0-.02.02-.1.02-.22-.01-.34-.07-.25-.23-.42-.34-.46-.04.04-.06.1-.07.19-.01.09,0,.2.02.32.05.22.16.42.27.48,0,0-.01.01-.02.02-.12.15-.24.29-.38.42,0,0,0-.01,0-.02.04-.09.05-.21.04-.34-.03-.26-.16-.44-.27-.51-.04.03-.08.09-.1.18-.03.08-.03.19-.03.32.02.23.1.44.19.52,0,0-.01,0-.02.01-.14.13-.29.25-.44.37.05-.09.09-.21.1-.35.01-.26-.1-.46-.2-.54-.09.05-.18.22-.2.47,0,.12,0,.25.03.34.02.08.05.15.09.19,0,0-.02.01-.03.02-.15.1-.31.2-.48.29.07-.08.13-.19.15-.33.05-.25-.03-.47-.11-.56-.1.04-.21.2-.27.44-.05.23-.03.45.04.55-.18.09-.23.14-.48.2"/>
        </g>
        <g>
          <polygon class="st11" points="13.16 8.92 13.68 9.13 13.68 10.3 13.13 10.08 13.16 8.92"/>
          <polygon class="st11" points="14.15 9.31 14.52 9.46 14.52 10.64 14.15 10.49 14.15 9.31"/>
          <polygon class="st11" points="18.44 9.08 18.44 10.21 16.01 11.23 14.78 10.74 14.78 9.55 15.98 10.03 18.44 9.08"/>
          <path class="st9" d="M21.1,7.34l-5.07-2.05-5.13,2.05,5.1,2.09,2.44-1v-.02l-2.13-.81c-.09.02-.19.03-.29.03-.39,0-.7-.16-.7-.37s.31-.37.7-.37.7.16.7.37c0,.03,0,.06-.02.09l2.2.83v.06l2.19-.9Z"/>
          <rect class="st6" x="18.92" y="7.68" width=".31" height="3"/>
          <g>
            <path class="st12" d="M19.24,10.74c0,.08-.07.15-.16.15s-.16-.07-.16-.15.07-.15.16-.15.16.07.16.15Z"/>
            <path class="st10" d="M19.07,10.82c-.13,0-.15-.02-.15-.02v.12h.3v-.12s-.02.02-.15.02Z"/>
            <path class="st1" d="M19.3,10.96c-.05-.06-.13-.1-.22-.1-.1,0-.19.05-.24.12-.12.18-.03.46.11.62,0,0,.02.02.02.03,0,0,0,0,0,0,0,0,.01.02.02.02,0,0,0,0,0,0,0,0,.01.02.02.03,0,0,0,0,0,0,0,0,.01.02.02.03.02.04.04.07.05.1.08-.06.13-.14.18-.22.05-.08.1-.17.11-.27.05-.25-.08-.39-.08-.38Z"/>
            <path class="st8" d="M18.99,10.91s0,0-.02.02c-.01.01-.03.04-.05.06,0,.01-.02.03-.02.05,0,0,0,.02-.01.03,0,0,0,.02,0,.03,0,0,0,.02,0,.03,0,0,0,.02,0,.03v.02s0,.02,0,.02v.03s0,.04,0,.06c0,.02,0,.04.02.06,0,.02.01.04.02.05,0,.02.02.03.02.05,0,0,0,.01.01.02,0,0,0,.01.01.02,0,.01.01.02.02.03.01.02.02.03.02.03,0,0,0,0-.02-.02,0,0-.01-.02-.02-.03,0,0,0-.01-.01-.02,0,0,0-.01-.01-.02,0-.01-.02-.03-.03-.05,0-.02-.02-.04-.03-.05,0-.02-.01-.04-.02-.06,0-.02,0-.04,0-.06v-.03s0-.02,0-.02v-.02s0-.02,0-.03c0-.01,0-.02,0-.03,0,0,0-.02.01-.03,0,0,0-.02.01-.03,0-.02.02-.03.03-.05,0-.01.02-.03.03-.04,0,0,.02-.02.03-.02.01-.01.02-.02.02-.02Z"/>
            <path class="st8" d="M19.05,10.91s0,.01,0,.03c0,0,0,.02,0,.03,0,.01,0,.03,0,.05,0,.03-.01.07-.02.11,0,.02,0,.04,0,.06,0,.02,0,.04,0,.07,0,.02,0,.04,0,.07,0,.02,0,.04,0,.06,0,.02,0,.04.01.06,0,.02,0,.04.02.05,0,.02.01.03.02.04,0,.01.01.02.02.03,0,.02.02.03.02.03,0,0,0,0-.02-.03,0,0-.01-.02-.02-.03,0-.01-.01-.03-.02-.04,0-.02-.01-.03-.02-.05,0-.02-.01-.04-.02-.06,0-.02,0-.04,0-.07,0-.02,0-.05,0-.07,0-.02,0-.05,0-.07,0-.02,0-.04,0-.07,0-.02,0-.04.01-.06,0-.02,0-.04.01-.05,0-.03.02-.06.02-.08,0-.02.01-.03.01-.03Z"/>
            <path class="st8" d="M19.09,10.99s0,.01,0,.03c0,.02.01.04.02.08,0,.02,0,.03.01.05,0,.02,0,.04,0,.06,0,.04,0,.08.01.13,0,.02,0,.04,0,.07,0,.02,0,.04,0,.06,0,.02,0,.04,0,.06,0,.02,0,.04,0,.05,0,.03-.01.06-.02.08,0,.02,0,.03,0,.03,0,0,0-.01,0-.03,0,0,0-.02,0-.03,0-.01,0-.03,0-.04,0-.02,0-.03,0-.05,0-.02,0-.04,0-.06,0-.02,0-.04,0-.06,0-.02,0-.04,0-.06,0-.04,0-.09,0-.13,0-.04,0-.08-.01-.11,0-.03,0-.06-.01-.08,0-.02,0-.03,0-.03Z"/>
            <path class="st8" d="M19.11,10.9s0,0,.02.02c0,.02.02.04.03.07.01.03.03.06.04.1,0,.02.01.04.02.06,0,.02,0,.04.01.06,0,.02,0,.04,0,.06,0,.02,0,.04,0,.06,0,.02,0,.04,0,.06,0,0,0,.02,0,.03,0,0,0,.02,0,.02,0,.02,0,.03,0,.04,0,.01,0,.02,0,.03,0,.02,0,.03,0,.03,0,0,0-.01,0-.03,0,0,0-.02,0-.03,0-.01,0-.03,0-.04,0,0,0-.02,0-.02,0,0,0-.02,0-.03,0-.02,0-.04,0-.05,0-.02,0-.04,0-.06,0-.02,0-.04,0-.06,0-.02,0-.04-.01-.06,0-.02,0-.04-.01-.06,0-.02,0-.04-.01-.05,0-.02,0-.03-.02-.05-.01-.03-.02-.05-.03-.07,0-.02-.01-.03-.01-.03Z"/>
            <path class="st8" d="M19.24,10.99s.02.04.04.1c0,.02,0,.03.01.05,0,.02,0,.04.01.06,0,.02,0,.04,0,.06,0,.02,0,.04,0,.06,0,.02,0,.04,0,.06,0,.02,0,.04-.01.06,0,.02,0,.04-.02.06,0,.02-.01.03-.02.05,0,.01-.02.03-.02.04,0,.01-.01.02-.02.03-.01.02-.02.02-.02.02,0,0,0,0,.01-.03,0,0,.01-.02.02-.03,0-.01.01-.03.02-.04,0-.01.01-.03.02-.05,0-.02,0-.04.01-.05,0-.02,0-.04,0-.06,0-.02,0-.04,0-.06,0-.02,0-.04,0-.06,0-.02,0-.04,0-.06,0-.02,0-.04,0-.06,0-.02,0-.03,0-.05,0-.03-.01-.06-.02-.07,0-.02,0-.03,0-.03Z"/>
          </g>
        </g>
        <path class="st4" d="M22.34,7.52v6.31s-.11.25-.26.65c-.15.4-1.97,4.09-6.08,5.31-4.11-1.22-5.93-4.91-6.08-5.31-.15-.4-.26-.65-.26-.65v-6.31l1.57.85.11.07h-.72v5.41c2.3,4.25,5.38,4.88,5.38,4.88,0,0,3.08-.64,5.38-4.88v-5.41h-.72l.11-.07,1.57-.85Z"/>
        <text class="st3" transform="translate(0 23.97)"><tspan x="0" y="0">PRIME LEARNING</tspan></text>
        <text class="st7" transform="translate(7.5 26.35)"><tspan x="0" y="0">LEARN • GROW • LEAD</tspan></text>
        <g>
          <g>
            <polygon class="st2" points="16 14.45 16.23 14 16.73 13.93 16.37 13.57 16.45 13.07 16 13.3 15.55 13.07 15.63 13.57 15.27 13.93 15.77 14 16 14.45"/>
            <path class="st2" d="M16.37,13.57l.08-.5-.45.23-.45-.23.05.28s.72-.06.63.65l.5-.07-.36-.36Z"/>
          </g>
          <g>
            <polygon class="st2" points="14.89 13.9 15.05 13.58 15.41 13.53 15.15 13.28 15.21 12.92 14.89 13.09 14.57 12.92 14.63 13.28 14.37 13.53 14.73 13.58 14.89 13.9"/>
            <path class="st2" d="M15.15,13.28l.06-.36-.32.17-.32-.17.03.2s.51-.05.45.46l.36-.05-.26-.25Z"/>
          </g>
          <g>
            <polygon class="st2" points="17.11 13.9 17.27 13.58 17.63 13.53 17.37 13.28 17.43 12.92 17.11 13.09 16.79 12.92 16.85 13.28 16.59 13.53 16.95 13.58 17.11 13.9"/>
            <path class="st2" d="M17.37,13.28l.06-.36-.32.17-.32-.17.03.2s.51-.05.45.46l.36-.05-.26-.25Z"/>
          </g>
        </g>
      </g>
    </g>
  </g>
</svg>