<?xml version="1.0" encoding="UTF-8"?>
<svg xmlns="http://www.w3.org/2000/svg" version="1.1" xmlns:xlink="http://www.w3.org/1999/xlink" viewBox="80 90 440 290">
  <!-- Generator: Adobe Illustrator 30.0.0, SVG Export Plug-In . SVG Version: 2.1.1 Build 123)  -->
  <defs>
    <style>
      .st0 {
        fill: #eaa821;
      }

      .st1 {
        fill: url(#linear-gradient1);
      }

      .st2 {
        fill: #262626;
      }

      .st3 {
        fill: #231f20;
        font-family: Georgia, Georgia;
        font-size: 67.02px;
      }

      .st4 {
        fill: #1f3a5f;
      }

      .st5 {
        isolation: isolate;
      }

      .st6 {
        fill: #e4ab24;
      }

      .st7 {
        fill: #f68c1f;
        mix-blend-mode: darken;
      }

      .st8 {
        fill: #2a2a2a;
        font-family: Montserrat-Regular, Montserrat;
        font-size: 27.42px;
      }

      .st9 {
        fill: #e9a822;
      }

      .st10 {
        fill: url(#Orange);
      }

      .st11 {
        fill: #e3ac24;
      }

      .st12 {
        fill: url(#linear-gradient);
      }
    </style>
    <linearGradient id="linear-gradient" x1="355.24" y1="191.15" x2="363.5" y2="230.67" gradientUnits="userSpaceOnUse">
      <stop offset="0" stop-color="#e38b25"/>
      <stop offset=".07" stop-color="#e9a73b"/>
      <stop offset=".16" stop-color="#f0c452"/>
      <stop offset=".21" stop-color="#f3d05b"/>
      <stop offset=".32" stop-color="#e9c547"/>
      <stop offset=".47" stop-color="#dab328"/>
      <stop offset=".75" stop-color="#dea026"/>
      <stop offset="1" stop-color="#e38b25"/>
    </linearGradient>
    <linearGradient id="Orange" x1="354.61" y1="203.93" x2="360.29" y2="203.93" gradientUnits="userSpaceOnUse">
      <stop offset="0" stop-color="#f2954d"/>
      <stop offset=".5" stop-color="#eb6f24"/>
      <stop offset="1" stop-color="#d15a27"/>
    </linearGradient>
    <linearGradient id="linear-gradient1" x1="353.72" y1="191.48" x2="361.95" y2="230.87" xlink:href="#linear-gradient"/>
  </defs>
  <g class="st5">
    <g id="Layer_1">
      <g>
        <g>
          <path class="st0" d="M298.74,326.04c-2.12-.55-4.73-1.07-4.73-1.07.6.14-.17,0,0,0-4.92-1.27-5.28-2.22-8.69-3.9-.8,2.2-3.78,5.09-8.45,6.3-5.02,1.33-9.79-.03-11.57-1.84.84-2.23,4.46-4.69,9.38-5.83,2.69-.61,5.14-.72,7.11-.46-3.11-1.68-6.13-3.53-9.06-5.51h0s-.05-.03-.08-.05c-.16-.11-.33-.22-.5-.33v-.02s-.01-.02-.03-.03c-.51.96-1.49,1.98-2.92,2.88-1.62,1.01-3.79,1.82-6.38,2.11-2.61.32-4.97-.12-6.96-.77-1.98-.67-3.43-1.75-4.21-2.75,1.15-2.07,5.12-4,10.13-4.38,2.76-.22,5.21.04,7.12.59-2.94-2.2-5.78-4.53-8.46-7.04-.1-.1-.2-.2-.31-.3-1.4,1.87-5.05,3.73-9.92,3.56-2.6-.1-4.9-.85-6.77-1.8-1.83-.99-3.14-2.24-3.76-3.34,1.44-1.87,5.68-3.22,10.67-2.83,2.55.14,4.73.71,6.48,1.41.17.07.32.15.48.22-2.48-2.52-4.84-5.17-7.07-7.92h0s-.08-.11-.13-.16c-.1-.12-.21-.25-.31-.37h.02s-.02-.04-.03-.05c-1.66,1.65-5.54,2.94-10.35,2.06-2.53-.5-4.73-1.56-6.44-2.78-1.64-1.26-2.78-2.68-3.22-3.86,1.69-1.63,6.11-2.35,10.97-1.22,2.5.52,4.6,1.38,6.19,2.36.17.1.31.2.47.3-2.16-2.97-4.19-6.04-6.04-9.22-.07-.12-.14-.25-.21-.38-1.9,1.37-5.92,2.07-10.54.49-2.4-.88-4.46-2.25-5.94-3.72-1.44-1.49-2.35-3.06-2.62-4.3,1.91-1.36,6.39-1.41,11.04.43,2.36.91,4.35,2.04,5.76,3.26.15.12.26.23.4.35-1.74-3.35-3.29-6.79-4.68-10.3l.19-.07c-1.03-.31-2.17-1.08-3.29-2.29-1.3-1.42-2.39-3.46-3.13-5.87-1.36-4.9-.16-9.18,1.52-10.71,2.16.87,4.76,4.1,6.01,8.57.69,2.23.81,4.39.71,6.21-.09,1.55-.47,2.87-1.03,3.79l.22-.09c1.35,3.43,2.88,6.78,4.57,10.06-.02-.13-.04-.25-.05-.39-.07-1.88.22-4.07,1.16-6.29,1.95-4.48,5.36-7.03,7.65-7.51.59.77.9,2.07.82,3.74-.04,1.65-.42,3.64-1.32,5.85-1.54,4.02-4.18,7.23-6.31,8.18.07.12.13.23.19.35,1.8,3.08,3.76,6.05,5.85,8.94-.03-.11-.06-.21-.09-.32-.38-1.83-.37-4.07.2-6.39,1.26-4.73,4.26-7.76,6.45-8.58.7.68,1.2,1.92,1.36,3.59.23,1.62.12,3.67-.42,5.97-.93,4.2-3.05,7.76-5.01,9.03.1.13.2.27.3.4,2.21,2.73,4.55,5.36,7.02,7.87-.05-.11-.1-.22-.14-.34-.67-1.73-.96-3.98-.75-6.35.54-4.85,3.07-8.31,5.11-9.44.79.56,1.45,1.74,1.88,3.35.48,1.56.64,3.64.47,5.97-.31,4.31-1.88,8.13-3.64,9.68.1.09.19.19.29.28,2.61,2.45,5.37,4.72,8.23,6.86-1-1.66-1.75-3.9-1.87-6.48-.21-4.85,1.81-8.69,3.65-10.09,1.7.93,3.35,4.19,3.7,8.87.18,2.33-.04,4.59-.51,6.44-.38,1.56-.97,2.82-1.67,3.64.17.12.34.25.51.37,2.89,1.96,5.88,3.78,8.95,5.45-1.25-1.49-2.35-3.61-2.84-6.17-.94-4.75.52-8.87,2.12-10.52,1.81.67,3.93,3.66,4.96,8.23.94,4.28.57,8.33-.67,10.31,3.34,1.65,4.26,2.61,8.97,3.81"/>
          <path class="st0" d="M301.27,326.04c2.12-.55,4.73-1.07,4.73-1.07-.6.14.17,0,0,0,4.92-1.27,5.28-2.22,8.69-3.9.8,2.2,3.78,5.09,8.45,6.3,5.02,1.33,9.79-.03,11.57-1.84-.84-2.23-4.46-4.69-9.38-5.83-2.69-.61-5.14-.72-7.11-.46,3.11-1.68,6.13-3.53,9.06-5.51h0s.05-.03.08-.05c.16-.11.33-.22.5-.33v-.02s.01-.02.03-.03c.51.96,1.49,1.98,2.92,2.88,1.62,1.01,3.79,1.82,6.38,2.11,2.61.32,4.97-.12,6.96-.77,1.98-.67,3.43-1.75,4.21-2.75-1.15-2.07-5.12-4-10.13-4.38-2.76-.22-5.21.04-7.12.59,2.94-2.2,5.78-4.53,8.46-7.04.1-.1.2-.2.31-.3,1.4,1.87,5.05,3.73,9.92,3.56,2.6-.1,4.9-.85,6.77-1.8,1.83-.99,3.14-2.24,3.76-3.34-1.44-1.87-5.68-3.22-10.67-2.83-2.55.14-4.73.71-6.48,1.41-.17.07-.32.15-.48.22,2.48-2.52,4.84-5.17,7.07-7.92h0s.08-.11.13-.16c.1-.12.21-.25.31-.37h-.02s.02-.04.03-.05c1.66,1.65,5.54,2.94,10.35,2.06,2.53-.5,4.73-1.56,6.44-2.78,1.64-1.26,2.78-2.68,3.22-3.86-1.69-1.63-6.11-2.35-10.97-1.22-2.5.52-4.6,1.38-6.19,2.36-.17.1-.31.2-.47.3,2.16-2.97,4.19-6.04,6.04-9.22.07-.12.14-.25.21-.38,1.9,1.37,5.92,2.07,10.54.49,2.4-.88,4.46-2.25,5.94-3.72,1.44-1.49,2.35-3.06,2.62-4.3-1.91-1.36-6.39-1.41-11.04.43-2.36.91-4.35,2.04-5.76,3.26-.15.12-.26.23-.4.35,1.74-3.35,3.29-6.79,4.68-10.3l-.19-.07c1.03-.31,2.17-1.08,3.29-2.29,1.3-1.42,2.39-3.46,3.13-5.87,1.36-4.9.16-9.18-1.52-10.71-2.16.87-4.76,4.1-6.01,8.57-.69,2.23-.81,4.39-.71,6.21.09,1.55.47,2.87,1.03,3.79l-.22-.09c-1.35,3.43-2.88,6.78-4.57,10.06.02-.13.04-.25.05-.39.07-1.88-.22-4.07-1.16-6.29-1.95-4.48-5.36-7.03-7.65-7.51-.59.77-.9,2.07-.82,3.74.04,1.65.42,3.64,1.32,5.85,1.54,4.02,4.18,7.23,6.31,8.18-.07.12-.13.23-.19.35-1.8,3.08-3.76,6.05-5.85,8.94.03-.11.06-.21.09-.32.38-1.83.37-4.07-.2-6.39-1.26-4.73-4.26-7.76-6.45-8.58-.7.68-1.2,1.92-1.36,3.59-.23,1.62-.12,3.67.42,5.97.93,4.2,3.05,7.76,5.01,9.03-.1.13-.2.27-.3.4-2.21,2.73-4.55,5.36-7.02,7.87.05-.11.1-.22.14-.34.67-1.73.96-3.98.75-6.35-.54-4.85-3.07-8.31-5.11-9.44-.79.56-1.45,1.74-1.88,3.35-.48,1.56-.64,3.64-.47,5.97.31,4.31,1.88,8.13,3.64,9.68-.1.09-.19.19-.29.28-2.61,2.45-5.37,4.72-8.23,6.86,1-1.66,1.75-3.9,1.87-6.48.21-4.85-1.81-8.69-3.65-10.09-1.7.93-3.35,4.19-3.7,8.87-.18,2.33.04,4.59.51,6.44.38,1.56.97,2.82,1.67,3.64-.17.12-.34.25-.51.37-2.89,1.96-5.88,3.78-8.95,5.45,1.25-1.49,2.35-3.61,2.84-6.17.94-4.75-.52-8.87-2.12-10.52-1.81.67-3.93,3.66-4.96,8.23-.94,4.28-.57,8.33.67,10.31-3.34,1.65-4.26,2.61-8.97,3.81"/>
        </g>
        <g>
          <polygon class="st11" points="246.86 167.71 256.7 171.54 256.7 193.45 246.39 189.3 246.86 167.71"/>
          <polygon class="st11" points="265.34 174.94 272.42 177.7 272.42 199.77 265.34 196.91 265.34 174.94"/>
          <polygon class="st11" points="345.67 170.71 345.67 191.68 300.21 210.92 277.13 201.64 277.13 179.51 299.71 188.35 345.67 170.71"/>
          <path class="st9" d="M395.27,138.06l-94.72-38.42-95.82,38.42,95.28,38.98,45.65-18.67v-.38l-39.77-15.12c-1.67.41-3.52.63-5.47.63-7.23,0-13.08-3.08-13.08-6.88s5.85-6.85,13.08-6.85,13.11,3.05,13.11,6.85c0,.57-.13,1.1-.38,1.6l41.15,15.56v1.04l40.96-16.76Z"/>
          <rect class="st6" x="354.51" y="144.49" width="5.89" height="56.13"/>
          <g>
            <path class="st12" d="M360.49,201.75c0,1.53-1.36,2.76-3.03,2.76s-3.03-1.24-3.03-2.76,1.36-2.76,3.03-2.76,3.03,1.24,3.03,2.76Z"/>
            <path class="st10" d="M357.45,203.21c-2.38,0-2.84-.4-2.84-.4v2.24h5.68v-2.24s-.46.4-2.83.4Z"/>
            <path class="st1" d="M361.6,205.81c-.96-1.16-2.47-1.88-4.08-1.88-1.79,0-3.48.88-4.4,2.29-2.24,3.45-.47,8.6,1.99,11.57.15.18.29.36.43.54.03.04.06.09.09.13.1.15.21.29.31.44.02.04.05.08.07.11.11.16.21.32.3.48.01.02.02.04.03.06.11.18.21.37.31.55.38.7.69,1.38.93,1.96,1.43-1.13,2.43-2.6,3.35-4.08.97-1.57,1.81-3.2,2.13-4.99.86-4.74-1.48-7.2-1.48-7.19Z"/>
            <path class="st7" d="M355.92,204.84s-.15.14-.39.42c-.24.27-.55.68-.86,1.2-.17.25-.3.55-.46.85-.07.16-.12.32-.19.49-.07.17-.13.33-.17.51-.05.18-.1.36-.15.54-.03.19-.05.37-.08.56l-.04.28v.29s-.02.58-.02.58c.03.39.07.77.13,1.15.11.37.17.75.29,1.1.14.34.27.68.39,1,.15.31.32.59.46.86.07.13.14.26.2.38.08.12.15.23.22.33.14.21.26.39.36.54.19.3.31.48.31.48,0,0-.14-.16-.38-.43-.12-.14-.26-.31-.43-.5-.08-.1-.17-.2-.26-.31-.08-.12-.16-.24-.24-.37-.16-.26-.35-.54-.54-.85-.15-.32-.31-.66-.47-1.01-.14-.36-.23-.75-.35-1.14-.07-.4-.12-.81-.16-1.21l.02-.61v-.31s.06-.3.06-.3c.04-.2.07-.4.1-.59.06-.19.12-.38.18-.56.05-.19.12-.36.21-.53.08-.17.15-.34.24-.49.18-.31.35-.6.54-.85.17-.26.37-.47.54-.66.18-.18.33-.34.47-.47.27-.25.45-.37.45-.37Z"/>
            <path class="st7" d="M356.94,204.84s-.05.21-.13.57c-.04.18-.09.4-.14.65-.05.25-.1.54-.16.85-.11.62-.21,1.35-.29,2.13-.05.39-.07.79-.1,1.21-.04.41-.03.83-.04,1.24,0,.42.03.83.04,1.24.05.41.08.81.13,1.2.08.38.13.76.22,1.11.1.34.18.68.28.97.12.29.23.56.32.8.09.24.23.43.31.6.18.33.28.52.28.52,0,0-.13-.17-.36-.48-.1-.16-.27-.33-.39-.57-.13-.23-.27-.5-.41-.79-.13-.3-.24-.63-.37-.98-.12-.35-.2-.73-.29-1.13-.07-.39-.12-.81-.18-1.22-.02-.42-.06-.85-.05-1.27.02-.43,0-.85.05-1.27.03-.42.08-.83.14-1.22.05-.4.13-.77.2-1.13.07-.36.16-.69.23-1,.16-.62.34-1.12.46-1.48.13-.35.21-.55.21-.55Z"/>
            <path class="st7" d="M357.68,206.33s.08.19.18.54c.1.35.26.84.38,1.44.07.3.13.63.19.98.06.35.13.71.17,1.1.1.76.17,1.58.2,2.4.02.41,0,.82.01,1.22,0,.4-.03.8-.04,1.19,0,.38-.07.75-.1,1.1-.03.35-.08.68-.13.99-.08.61-.21,1.11-.28,1.46-.08.35-.13.55-.13.55,0,0,.02-.2.04-.56.02-.18.04-.39.06-.64.02-.25.03-.53.05-.83.02-.3.05-.63.05-.98,0-.35.03-.72.03-1.1,0-.38.01-.77,0-1.17,0-.4,0-.8-.03-1.21-.02-.81-.08-1.62-.14-2.38-.07-.76-.13-1.47-.22-2.07-.08-.61-.15-1.11-.21-1.46-.06-.35-.09-.56-.09-.56Z"/>
            <path class="st7" d="M358.14,204.68s.12.16.29.46c.17.3.42.73.65,1.27.24.54.49,1.18.7,1.88.09.35.21.71.28,1.09.08.37.16.76.21,1.14.06.38.09.77.12,1.15.04.38.02.76.02,1.12.01.36-.04.71-.07,1.05-.02.17-.03.33-.05.48-.03.15-.06.3-.08.45-.05.29-.1.55-.16.78-.07.23-.13.43-.18.59-.1.32-.16.51-.16.51,0,0,.03-.19.07-.52.03-.17.06-.37.09-.6.02-.23.04-.49.07-.78.01-.14.03-.29.04-.44,0-.15,0-.31,0-.48,0-.33.02-.67,0-1.03,0-.36-.02-.72-.06-1.09-.03-.37-.07-.75-.13-1.13-.04-.38-.12-.75-.19-1.12-.06-.37-.16-.73-.24-1.08-.1-.34-.17-.68-.27-1-.09-.32-.18-.61-.28-.89-.19-.55-.35-1-.48-1.31-.13-.31-.21-.49-.21-.49Z"/>
            <path class="st7" d="M360.49,206.33s.39.71.74,1.85c.08.29.18.6.25.93.09.33.16.68.22,1.05.07.37.1.75.14,1.14.02.39.04.79.04,1.19-.03.4-.02.8-.09,1.19-.06.39-.1.77-.21,1.14-.09.36-.18.72-.32,1.04-.14.32-.23.63-.39.9-.14.27-.28.51-.4.72-.14.2-.28.37-.38.52-.22.28-.34.44-.34.44,0,0,.1-.18.27-.48.09-.15.2-.33.31-.55.09-.22.19-.47.32-.74.14-.26.2-.58.31-.89.11-.32.16-.67.24-1.02.09-.35.11-.73.16-1.1.06-.38.04-.77.07-1.15,0-.39,0-.77-.02-1.15-.04-.38-.04-.76-.1-1.12-.04-.36-.09-.71-.14-1.04-.05-.33-.12-.64-.18-.93-.13-.57-.24-1.05-.34-1.38-.09-.33-.15-.52-.15-.52Z"/>
          </g>
        </g>
        <path class="st4" d="M418.46,141.47v117.93s-2.04,4.63-4.84,12.09c-2.77,7.46-36.77,76.37-113.6,99.19-76.86-22.82-110.86-91.73-113.63-99.19-2.8-7.46-4.84-12.09-4.84-12.09v-117.93l29.37,15.96,2.01,1.37h-13.5v101.05c43.08,79.39,100.59,91.27,100.59,91.27,0,0,57.49-11.88,100.56-91.27v-101.05h-13.5l2.01-1.37,29.37-15.96Z"/>
        <g>
          <g>
            <polygon class="st2" points="300 271.09 304.23 262.61 313.6 261.21 306.84 254.58 308.4 245.23 300 249.61 291.6 245.23 293.17 254.58 286.41 261.21 295.78 262.61 300 271.09"/>
            <path class="st2" d="M306.84,254.58l1.56-9.34-8.4,4.37-8.4-4.37.88,5.24c.1,0,13.49-1.18,11.75,12.14l9.37-1.4-6.76-6.64Z"/>
          </g>
          <g>
            <polygon class="st2" points="279.22 260.83 282.22 254.8 288.89 253.8 284.08 249.08 285.2 242.43 279.22 245.54 273.24 242.43 274.35 249.08 269.54 253.8 276.21 254.8 279.22 260.83"/>
            <path class="st2" d="M284.08,249.08l1.11-6.65-5.98,3.11-5.98-3.11.62,3.73c.07,0,9.6-.84,8.36,8.64l6.67-1-4.81-4.73Z"/>
          </g>
          <g>
            <polygon class="st2" points="320.79 260.83 323.8 254.8 330.47 253.8 325.66 249.08 326.77 242.43 320.79 245.54 314.81 242.43 315.93 249.08 311.12 253.8 317.78 254.8 320.79 260.83"/>
            <path class="st2" d="M325.66,249.08l1.11-6.65-5.98,3.11-5.98-3.11.62,3.73c.07,0,9.6-.84,8.36,8.64l6.67-1-4.81-4.73Z"/>
          </g>
        </g>
      </g>
    </g>
  </g>
</svg>