<?xml version="1.0" encoding="UTF-8"?>
<svg xmlns="http://www.w3.org/2000/svg" version="1.1" xmlns:xlink="http://www.w3.org/1999/xlink" viewBox="0 0 600 300">
  <!-- Generator: Adobe Illustrator 30.0.0, SVG Export Plug-In . SVG Version: 2.1.1 Build 123)  -->
  <defs>
    <style>
      .st0 {
        fill: #2a2a2a;
        font-family: Montserrat-Regular, Montserrat;
        font-size: 24.8px;
      }

      .st1 {
        fill: #eaa821;
      }

      .st2 {
        fill: #0a192f;
      }

      .st3 {
        fill: url(#linear-gradient1);
      }

      .st4 {
        isolation: isolate;
      }

      .st5 {
        fill: #e4ab24;
      }

      .st6 {
        fill: #231f20;
        font-family: Georgia, Georgia;
        font-size: 50.94px;
      }

      .st7 {
        fill: #f68c1f;
        mix-blend-mode: darken;
      }

      .st8 {
        fill: #e9a822;
      }

      .st9 {
        fill: url(#Orange);
      }

      .st10 {
        fill: #e3ac24;
      }

      .st11 {
        fill: url(#linear-gradient);
      }
    </style>
    <linearGradient id="linear-gradient" x1="92.29" y1="127.03" x2="96.6" y2="147.65" gradientUnits="userSpaceOnUse">
      <stop offset="0" stop-color="#e38b25"/>
      <stop offset=".07" stop-color="#e9a73b"/>
      <stop offset=".16" stop-color="#f0c452"/>
      <stop offset=".21" stop-color="#f3d05b"/>
      <stop offset=".32" stop-color="#e9c547"/>
      <stop offset=".47" stop-color="#dab328"/>
      <stop offset=".75" stop-color="#dea026"/>
      <stop offset="1" stop-color="#e38b25"/>
    </linearGradient>
    <linearGradient id="Orange" x1="91.97" y1="133.7" x2="94.93" y2="133.7" gradientUnits="userSpaceOnUse">
      <stop offset="0" stop-color="#f2954d"/>
      <stop offset=".5" stop-color="#eb6f24"/>
      <stop offset="1" stop-color="#d15a27"/>
    </linearGradient>
    <linearGradient id="linear-gradient1" x1="91.5" y1="127.21" x2="95.8" y2="147.76" xlink:href="#linear-gradient"/>
  </defs>
  <g class="st4">
    <g id="Layer_1">
      <g>
        <g>
          <text class="st6" transform="translate(143.43 151.51)"><tspan x="0" y="0">PRIME LEARNING</tspan></text>
          <text class="st0" transform="translate(227.19 185.38)"><tspan x="0" y="0">LEARN • GROW • LEAD</tspan></text>
        </g>
        <g>
          <g>
            <path class="st1" d="M62.81,195.84c-1.1-.29-2.47-.56-2.47-.56.31.07-.09,0,0,0-2.57-.66-2.75-1.16-4.53-2.03-.42,1.15-1.97,2.66-4.41,3.29-2.62.7-5.11-.02-6.04-.96.44-1.16,2.33-2.45,4.89-3.04,1.4-.32,2.68-.38,3.71-.24-1.62-.88-3.2-1.84-4.73-2.88h0s-.03-.02-.04-.03c-.09-.06-.17-.11-.26-.17h0s-.01-.02-.02-.02c-.27.5-.78,1.03-1.52,1.5-.85.53-1.98.95-3.33,1.1-1.36.17-2.59-.06-3.63-.4-1.03-.35-1.79-.91-2.2-1.43.6-1.08,2.67-2.09,5.29-2.29,1.44-.11,2.72.02,3.72.31-1.53-1.15-3.02-2.36-4.41-3.67-.05-.05-.11-.11-.16-.16-.73.98-2.64,1.95-5.18,1.86-1.35-.05-2.56-.44-3.54-.94-.95-.52-1.64-1.17-1.96-1.74.75-.98,2.96-1.68,5.57-1.48,1.33.07,2.47.37,3.38.74.09.04.17.08.25.11-1.3-1.32-2.53-2.7-3.69-4.13h0s-.04-.06-.07-.08c-.05-.07-.11-.13-.16-.19h0s0-.02-.02-.03c-.87.86-2.89,1.53-5.4,1.07-1.32-.26-2.47-.82-3.36-1.45-.86-.66-1.45-1.4-1.68-2.02.88-.85,3.19-1.23,5.72-.64,1.3.27,2.4.72,3.23,1.23.09.05.16.11.24.16-1.13-1.55-2.18-3.15-3.15-4.81-.04-.06-.07-.13-.11-.2-.99.72-3.09,1.08-5.5.26-1.25-.46-2.33-1.17-3.1-1.94-.75-.78-1.23-1.6-1.37-2.24,1-.71,3.34-.74,5.76.22,1.23.47,2.27,1.07,3.01,1.7.08.06.14.12.21.18-.91-1.75-1.72-3.54-2.44-5.37l.1-.04c-.54-.16-1.13-.56-1.71-1.2-.68-.74-1.25-1.81-1.63-3.06-.71-2.56-.08-4.79.79-5.59,1.13.46,2.49,2.14,3.14,4.47.36,1.16.42,2.29.37,3.24-.05.81-.25,1.5-.54,1.98l.12-.04c.71,1.79,1.5,3.54,2.38,5.25,0-.07-.02-.13-.03-.2-.04-.98.12-2.13.6-3.28,1.02-2.34,2.8-3.67,3.99-3.92.31.4.47,1.08.43,1.95-.02.86-.22,1.9-.69,3.05-.8,2.1-2.18,3.77-3.29,4.27.03.06.07.12.1.18.94,1.61,1.96,3.16,3.06,4.67-.02-.06-.03-.11-.05-.17-.2-.95-.19-2.13.1-3.34.66-2.47,2.22-4.05,3.37-4.48.36.35.62,1,.71,1.87.12.84.06,1.92-.22,3.12-.48,2.19-1.59,4.05-2.62,4.71.05.07.1.14.16.21,1.15,1.43,2.38,2.8,3.66,4.11-.03-.06-.05-.11-.08-.17-.35-.9-.5-2.08-.39-3.31.28-2.53,1.6-4.34,2.66-4.93.41.29.76.91.98,1.75.25.82.33,1.9.24,3.12-.16,2.25-.98,4.24-1.9,5.05.05.05.1.1.15.14,1.36,1.28,2.8,2.46,4.3,3.58-.52-.86-.92-2.04-.98-3.38-.11-2.53.95-4.53,1.9-5.27.89.49,1.75,2.19,1.93,4.63.09,1.22-.02,2.39-.26,3.36-.2.82-.51,1.47-.87,1.9.09.06.18.13.27.19,1.51,1.02,3.07,1.97,4.67,2.84-.65-.78-1.22-1.88-1.48-3.22-.49-2.48.27-4.63,1.11-5.49.95.35,2.05,1.91,2.59,4.29.49,2.23.3,4.34-.35,5.38,1.74.86,2.22,1.36,4.68,1.99"/>
            <path class="st1" d="M64.13,195.84c1.1-.29,2.47-.56,2.47-.56-.31.07.09,0,0,0,2.57-.66,2.75-1.16,4.53-2.03.42,1.15,1.97,2.66,4.41,3.29,2.62.7,5.11-.02,6.04-.96-.44-1.16-2.33-2.45-4.89-3.04-1.4-.32-2.68-.38-3.71-.24,1.62-.88,3.2-1.84,4.73-2.88h0s.03-.02.04-.03c.09-.06.17-.11.26-.17h0s.01-.02.02-.02c.27.5.78,1.03,1.52,1.5.85.53,1.98.95,3.33,1.1,1.36.17,2.59-.06,3.63-.4,1.03-.35,1.79-.91,2.2-1.43-.6-1.08-2.67-2.09-5.29-2.29-1.44-.11-2.72.02-3.72.31,1.53-1.15,3.02-2.36,4.41-3.67.05-.05.11-.11.16-.16.73.98,2.64,1.95,5.18,1.86,1.35-.05,2.56-.44,3.54-.94.95-.52,1.64-1.17,1.96-1.74-.75-.98-2.96-1.68-5.57-1.48-1.33.07-2.47.37-3.38.74-.09.04-.17.08-.25.11,1.3-1.32,2.53-2.7,3.69-4.13h0s.04-.06.07-.08c.05-.07.11-.13.16-.19h0s0-.02.02-.03c.87.86,2.89,1.53,5.4,1.07,1.32-.26,2.47-.82,3.36-1.45.86-.66,1.45-1.4,1.68-2.02-.88-.85-3.19-1.23-5.72-.64-1.3.27-2.4.72-3.23,1.23-.09.05-.16.11-.24.16,1.13-1.55,2.18-3.15,3.15-4.81.04-.06.07-.13.11-.2.99.72,3.09,1.08,5.5.26,1.25-.46,2.33-1.17,3.1-1.94.75-.78,1.23-1.6,1.37-2.24-1-.71-3.34-.74-5.76.22-1.23.47-2.27,1.07-3.01,1.7-.08.06-.14.12-.21.18.91-1.75,1.72-3.54,2.44-5.37l-.1-.04c.54-.16,1.13-.56,1.71-1.2.68-.74,1.25-1.81,1.63-3.06.71-2.56.08-4.79-.79-5.59-1.13.46-2.49,2.14-3.14,4.47-.36,1.16-.42,2.29-.37,3.24.05.81.25,1.5.54,1.98l-.12-.04c-.71,1.79-1.5,3.54-2.38,5.25,0-.07.02-.13.03-.2.04-.98-.12-2.13-.6-3.28-1.02-2.34-2.8-3.67-3.99-3.92-.31.4-.47,1.08-.43,1.95.02.86.22,1.9.69,3.05.8,2.1,2.18,3.77,3.29,4.27-.03.06-.07.12-.1.18-.94,1.61-1.96,3.16-3.06,4.67.02-.06.03-.11.05-.17.2-.95.19-2.13-.1-3.34-.66-2.47-2.22-4.05-3.37-4.48-.36.35-.62,1-.71,1.87-.12.84-.06,1.92.22,3.12.48,2.19,1.59,4.05,2.62,4.71-.05.07-.1.14-.16.21-1.15,1.43-2.38,2.8-3.66,4.11.03-.06.05-.11.08-.17.35-.9.5-2.08.39-3.31-.28-2.53-1.6-4.34-2.66-4.93-.41.29-.76.91-.98,1.75-.25.82-.33,1.9-.24,3.12.16,2.25.98,4.24,1.9,5.05-.05.05-.1.1-.15.14-1.36,1.28-2.8,2.46-4.3,3.58.52-.86.92-2.04.98-3.38.11-2.53-.95-4.53-1.9-5.27-.89.49-1.75,2.19-1.93,4.63-.09,1.22.02,2.39.26,3.36.2.82.51,1.47.87,1.9-.09.06-.18.13-.27.19-1.51,1.02-3.07,1.97-4.67,2.84.65-.78,1.22-1.88,1.48-3.22.49-2.48-.27-4.63-1.11-5.49-.95.35-2.05,1.91-2.59,4.29-.49,2.23-.3,4.34.35,5.38-1.74.86-2.22,1.36-4.68,1.99"/>
          </g>
          <g>
            <polygon class="st10" points="35.74 114.8 40.87 116.8 40.87 128.23 35.49 126.07 35.74 114.8"/>
            <polygon class="st10" points="45.38 118.57 49.07 120.02 49.07 131.53 45.38 130.04 45.38 118.57"/>
            <polygon class="st10" points="87.3 116.37 87.3 127.31 63.58 137.35 51.53 132.51 51.53 120.96 63.31 125.57 87.3 116.37"/>
            <path class="st8" d="M113.19,99.33l-49.43-20.05-50,20.05,49.72,20.34,23.82-9.74v-.2l-20.75-7.89c-.87.21-1.84.33-2.85.33-3.77,0-6.82-1.61-6.82-3.59s3.05-3.58,6.82-3.58,6.84,1.59,6.84,3.58c0,.3-.07.57-.2.84l21.47,8.12v.54l21.38-8.74Z"/>
            <rect class="st5" x="91.91" y="102.69" width="3.07" height="29.29"/>
            <g>
              <path class="st11" d="M95.03,132.56c0,.8-.71,1.44-1.58,1.44s-1.58-.65-1.58-1.44.71-1.44,1.58-1.44,1.58.65,1.58,1.44Z"/>
              <path class="st9" d="M93.45,133.33c-1.24,0-1.48-.21-1.48-.21v1.17h2.96v-1.17s-.24.21-1.48.21Z"/>
              <path class="st3" d="M95.61,134.68c-.5-.6-1.29-.98-2.13-.98-.93,0-1.82.46-2.29,1.2-1.17,1.8-.25,4.49,1.04,6.04.08.09.15.19.22.28.02.02.03.05.05.07.05.08.11.15.16.23.01.02.03.04.04.06.05.08.11.17.16.25,0,.01.01.02.02.03.06.1.11.19.16.29.2.37.36.72.49,1.02.75-.59,1.27-1.36,1.75-2.13.51-.82.94-1.67,1.11-2.6.45-2.48-.77-3.76-.77-3.75Z"/>
              <path class="st7" d="M92.65,134.18s-.08.08-.2.22c-.12.14-.29.36-.45.63-.09.13-.16.29-.24.45-.04.08-.06.17-.1.25-.03.09-.07.17-.09.27-.03.09-.05.19-.08.28-.01.1-.03.2-.04.29l-.02.15v.15s0,.3,0,.3c.02.2.04.4.07.6.06.19.09.39.15.57.07.18.14.35.2.52.08.16.16.31.24.45.04.07.07.14.11.2.04.06.08.12.11.17.07.11.13.2.19.28.1.16.16.25.16.25,0,0-.07-.08-.2-.22-.06-.07-.14-.16-.22-.26-.04-.05-.09-.11-.14-.16-.04-.06-.08-.13-.13-.2-.09-.14-.18-.28-.28-.44-.08-.17-.16-.34-.24-.53-.07-.19-.12-.39-.18-.59-.04-.21-.06-.42-.08-.63v-.32s.02-.16.02-.16l.03-.16c.02-.1.04-.21.05-.31.03-.1.06-.2.09-.29.03-.1.06-.19.11-.28.04-.09.08-.18.12-.26.1-.16.18-.31.28-.44.09-.14.19-.25.28-.35.09-.1.17-.18.25-.24.14-.13.24-.19.24-.19Z"/>
              <path class="st7" d="M93.18,134.18s-.02.11-.07.3c-.02.09-.04.21-.07.34-.02.13-.05.28-.08.44-.06.32-.11.71-.15,1.11-.03.2-.04.41-.05.63-.02.21-.01.43-.02.65,0,.22.01.43.02.65.03.21.04.42.07.62.04.2.07.4.11.58.05.18.1.35.15.51.07.15.12.29.17.42.05.13.12.22.16.31.09.17.15.27.15.27,0,0-.07-.09-.19-.25-.05-.08-.14-.17-.2-.3-.07-.12-.14-.26-.22-.41-.07-.16-.12-.33-.19-.51-.06-.18-.1-.38-.15-.59-.04-.21-.06-.42-.09-.64,0-.22-.03-.44-.03-.66,0-.22,0-.44.03-.66.01-.22.04-.43.07-.64.02-.21.07-.4.11-.59.04-.19.08-.36.12-.52.08-.32.18-.59.24-.77.07-.18.11-.29.11-.29Z"/>
              <path class="st7" d="M93.57,134.95s.04.1.1.28c.05.18.13.44.2.75.04.16.07.33.1.51.03.18.07.37.09.57.05.4.09.83.1,1.25.01.21,0,.43,0,.64,0,.21-.02.42-.02.62,0,.2-.03.39-.05.58-.02.18-.04.36-.07.51-.04.32-.11.58-.15.76-.04.18-.07.29-.07.29,0,0,0-.11.02-.29,0-.09.02-.21.03-.33,0-.13.02-.28.03-.43.01-.16.02-.33.03-.51,0-.18.02-.37.02-.57,0-.2,0-.4,0-.61,0-.21,0-.42-.01-.63-.01-.42-.04-.85-.07-1.24-.03-.4-.07-.77-.11-1.08-.04-.32-.08-.58-.11-.76-.03-.18-.05-.29-.05-.29Z"/>
              <path class="st7" d="M93.81,134.09s.06.08.15.24c.09.16.22.38.34.66.12.28.25.61.37.98.05.18.11.37.15.57.04.2.08.39.11.6.03.2.05.4.06.6.02.2.01.4.01.58,0,.19-.02.37-.04.55,0,.09-.02.17-.03.25-.01.08-.03.16-.04.23-.03.15-.05.29-.08.41-.04.12-.07.22-.09.31-.05.17-.08.27-.08.27,0,0,.01-.1.04-.27.01-.09.03-.19.05-.31.01-.12.02-.26.04-.41,0-.07.01-.15.02-.23,0-.08,0-.16,0-.25,0-.17,0-.35,0-.54,0-.19-.01-.38-.03-.57-.01-.19-.03-.39-.07-.59-.02-.2-.06-.39-.1-.58-.03-.19-.08-.38-.12-.56-.05-.18-.09-.36-.14-.52-.05-.16-.1-.32-.15-.46-.1-.28-.18-.52-.25-.69-.07-.16-.11-.26-.11-.26Z"/>
              <path class="st7" d="M95.03,134.95s.2.37.39.97c.04.15.09.31.13.48.04.17.09.36.11.55.04.19.05.39.07.59.01.2.02.41.02.62-.02.21-.01.42-.05.62-.03.2-.05.4-.11.59-.05.19-.09.37-.17.54-.07.17-.12.33-.2.47-.07.14-.15.27-.21.38-.07.11-.15.2-.2.27-.11.15-.18.23-.18.23,0,0,.05-.09.14-.25.04-.08.1-.17.16-.29.05-.12.1-.25.17-.39.07-.14.1-.3.16-.47.06-.16.09-.35.13-.53.05-.18.06-.38.09-.58.03-.2.02-.4.04-.6,0-.2,0-.4-.01-.6-.02-.2-.02-.39-.05-.58-.02-.19-.04-.37-.08-.54-.02-.17-.06-.34-.09-.49-.07-.3-.12-.55-.18-.72-.05-.17-.08-.27-.08-.27Z"/>
            </g>
          </g>
          <path class="st2" d="M125.29,101.1v61.54s-1.07,2.42-2.53,6.31c-1.45,3.89-19.19,39.86-59.28,51.76-40.11-11.91-57.85-47.87-59.3-51.76-1.46-3.89-2.53-6.31-2.53-6.31v-61.54l15.33,8.33,1.05.72h-7.04v52.73c22.48,41.43,52.49,47.63,52.49,47.63,0,0,30-6.2,52.48-47.63v-52.73h-7.04l1.05-.72,15.33-8.33Z"/>
          <g>
            <g>
              <polygon class="st2" points="63.47 168.75 65.67 164.33 70.56 163.6 67.04 160.13 67.85 155.26 63.47 157.54 59.09 155.26 59.9 160.13 56.38 163.6 61.26 164.33 63.47 168.75"/>
              <path class="st2" d="M67.04,160.13l.82-4.87-4.38,2.28-4.38-2.28.46,2.73c.05,0,7.04-.62,6.13,6.33l4.89-.73-3.53-3.46Z"/>
            </g>
            <g>
              <polygon class="st2" points="52.62 163.4 54.19 160.25 57.67 159.73 55.16 157.26 55.74 153.79 52.62 155.42 49.5 153.79 50.08 157.26 47.57 159.73 51.05 160.25 52.62 163.4"/>
              <path class="st2" d="M55.16,157.26l.58-3.47-3.12,1.62-3.12-1.62.33,1.95s5.01-.44,4.36,4.51l3.48-.52-2.51-2.47Z"/>
            </g>
            <g>
              <polygon class="st2" points="74.32 163.4 75.89 160.25 79.37 159.73 76.86 157.26 77.44 153.79 74.32 155.42 71.2 153.79 71.78 157.26 69.27 159.73 72.75 160.25 74.32 163.4"/>
              <path class="st2" d="M76.86,157.26l.58-3.47-3.12,1.62-3.12-1.62.33,1.95s5.01-.44,4.36,4.51l3.48-.52-2.51-2.47Z"/>
            </g>
          </g>
        </g>
      </g>
    </g>
  </g>
</svg>